<svg xmlns="http://www.w3.org/2000/svg" width="315" height="315" viewBox="0 0 315 315" fill="none">
<path d="M263.775 55.0502L270.375 30.8252" stroke="black" stroke-width="1.4" stroke-miterlimit="10" stroke-linecap="round"/>
<path d="M277.275 55.0502L283.875 30.8252" stroke="black" stroke-width="1.4" stroke-miterlimit="10" stroke-linecap="round"/>
<path d="M290.7 55.0502L297.3 30.8252" stroke="black" stroke-width="1.4" stroke-miterlimit="10" stroke-linecap="round"/>
<path d="M211.2 95.4751C211.2 95.4751 225.6 87.3001 224.55 69.5251C223.5 51.7501 211.2 50.7001 210.45 59.4751C210 64.7251 211.65 71.2501 211.65 71.2501C211.65 71.2501 191.325 73.9501 193.125 98.4001" fill="white"/>
<path d="M211.2 95.4751C211.2 95.4751 225.6 87.3001 224.55 69.5251C223.5 51.7501 211.2 50.7001 210.45 59.4751C210 64.7251 211.65 71.2501 211.65 71.2501C211.65 71.2501 191.325 73.9501 193.125 98.4001" stroke="black" stroke-width="1.4" stroke-miterlimit="10" stroke-linecap="round"/>
<path d="M266.325 69.4502H47.175C46.575 69.4502 46.05 69.9752 46.05 70.5752V283.425C46.05 284.025 46.575 284.55 47.175 284.55H266.325C266.925 284.55 267.45 284.025 267.45 283.425V70.5752C267.45 69.9752 266.925 69.4502 266.325 69.4502Z" fill="#0066FF"/>
<path d="M37.575 131.4C39.375 131.85 41.175 132.15 43.125 132.3" stroke="white" stroke-width="1.4" stroke-linecap="round" stroke-linejoin="bevel"/>
<path d="M47.775 132.075C60.375 130.425 70.05 119.775 70.05 106.8C70.05 105.375 69.9 103.875 69.675 102.525" stroke="white" stroke-width="4" stroke-miterlimit="10" stroke-linecap="round" stroke-linejoin="bevel" stroke-dasharray="15 15"/>
<path d="M69.15 100.275C68.625 98.4749 67.95 96.6749 67.125 95.0249" stroke="white" stroke-width="1.4" stroke-linecap="round" stroke-linejoin="bevel"/>
<path d="M198.075 60.6001H196.05H170.1L110.775 284.175C111.45 284.175 165.675 283.65 165.675 283.65L223.95 60.6001H198.075Z" fill="white" stroke="black" stroke-width="1.4" stroke-miterlimit="10" stroke-linecap="round"/>
<path d="M223.95 61.2L231.9 32.25C232.875 28.8 230.775 25.275 227.325 24.3H227.25C223.8 23.4 220.2 25.425 219.225 28.875L218.775 30.6C218.85 27.675 216.975 24.975 213.975 24.15H213.9C210.45 23.25 206.85 25.275 205.875 28.725L205.05 31.65C205.65 28.35 203.7 25.125 200.4 24.225H200.325C196.875 23.325 193.275 25.35 192.3 28.8L191.475 31.725C192.075 28.425 190.125 25.2 186.825 24.3H186.75C183.3 23.4 179.7 25.425 178.725 28.875L169.875 61.425" fill="white"/>
<path d="M223.95 61.2L231.9 32.25C232.875 28.8 230.775 25.275 227.325 24.3H227.25C223.8 23.4 220.2 25.425 219.225 28.875L218.775 30.6C218.85 27.675 216.975 24.975 213.975 24.15H213.9C210.45 23.25 206.85 25.275 205.875 28.725L205.05 31.65C205.65 28.35 203.7 25.125 200.4 24.225H200.325C196.875 23.325 193.275 25.35 192.3 28.8L191.475 31.725C192.075 28.425 190.125 25.2 186.825 24.3H186.75C183.3 23.4 179.7 25.425 178.725 28.875L169.875 61.425" stroke="black" stroke-width="1.4" stroke-miterlimit="10" stroke-linecap="round"/>
<path d="M184.575 58.0502L191.85 30.8252" stroke="black" stroke-width="1.4" stroke-miterlimit="10" stroke-linecap="round"/>
<path d="M197.775 58.0502L205.35 30.8252" stroke="black" stroke-width="1.4" stroke-miterlimit="10" stroke-linecap="round"/>
<path d="M211.5 58.0502L218.775 30.8252" stroke="black" stroke-width="1.4" stroke-miterlimit="10" stroke-linecap="round"/>
<path d="M181.65 58.0498H187.575" stroke="black" stroke-width="1.4" stroke-miterlimit="10" stroke-linecap="round"/>
<path d="M194.85 58.0498H200.775" stroke="black" stroke-width="1.4" stroke-miterlimit="10" stroke-linecap="round"/>
<path d="M208.05 58.0498H213.9" stroke="black" stroke-width="1.4" stroke-miterlimit="10" stroke-linecap="round"/>
<path d="M280.05 60.6001H278.025H252.075L193.05 284.1C193.725 284.1 247.65 283.725 247.65 283.725L305.925 60.6751H280.05V60.6001Z" fill="white" stroke="black" stroke-width="1.4" stroke-miterlimit="10" stroke-linecap="round"/>
<path d="M305.625 61.875L313.8 32.25C314.775 28.8 312.675 25.275 309.225 24.3H309.15C305.7 23.4 302.1 25.425 301.125 28.875L300.675 30.6C300.75 27.675 298.875 24.975 295.875 24.15H295.8C292.35 23.25 288.75 25.275 287.775 28.725L286.95 31.65C287.55 28.35 285.6 25.125 282.3 24.225H282.225C278.775 23.325 275.175 25.35 274.2 28.8L273.375 31.725C273.975 28.425 272.025 25.2 268.725 24.3H268.65C265.2 23.4 261.6 25.425 260.625 28.875L251.775 61.425" fill="white"/>
<path d="M305.625 61.875L313.8 32.25C314.775 28.8 312.675 25.275 309.225 24.3H309.15C305.7 23.4 302.1 25.425 301.125 28.875L300.675 30.6C300.75 27.675 298.875 24.975 295.875 24.15H295.8C292.35 23.25 288.75 25.275 287.775 28.725L286.95 31.65C287.55 28.35 285.6 25.125 282.3 24.225H282.225C278.775 23.325 275.175 25.35 274.2 28.8L273.375 31.725C273.975 28.425 272.025 25.2 268.725 24.3H268.65C265.2 23.4 261.6 25.425 260.625 28.875L251.775 61.425" stroke="black" stroke-width="1.4" stroke-miterlimit="10" stroke-linecap="round"/>
<path d="M266.55 58.0502L273.75 30.8252" stroke="black" stroke-width="1.4" stroke-miterlimit="10" stroke-linecap="round"/>
<path d="M279.675 58.0502L287.25 30.8252" stroke="black" stroke-width="1.4" stroke-miterlimit="10" stroke-linecap="round"/>
<path d="M293.4 58.0502L300.675 30.8252" stroke="black" stroke-width="1.4" stroke-miterlimit="10" stroke-linecap="round"/>
<path d="M263.55 58.0498H269.475" stroke="black" stroke-width="1.4" stroke-miterlimit="10" stroke-linecap="round"/>
<path d="M276.75 58.0498H282.675" stroke="black" stroke-width="1.4" stroke-miterlimit="10" stroke-linecap="round"/>
<path d="M289.95 58.0498H295.875" stroke="black" stroke-width="1.4" stroke-miterlimit="10" stroke-linecap="round"/>
<path d="M145.425 155.775L274.2 182.475L247.5 283.8L110.625 284.1L145.425 155.775Z" fill="white" stroke="black" stroke-width="1.4" stroke-miterlimit="10" stroke-linecap="round"/>
<path d="M222.675 171.975C222.675 171.975 272.7 187.425 263.85 221.325C274.125 182.175 274.125 182.175 274.125 182.175L222.675 171.975Z" fill="black"/>
<path d="M196.2 166.95C196.2 166.95 149.55 162.45 134.325 195.3C145.35 155.475 145.05 155.625 145.05 155.625L196.2 166.95Z" fill="black"/>
<path d="M234.9 143.475C234.075 147.375 230.475 149.85 226.725 149.1C225.975 148.95 201 143.55 201 143.55C201 143.55 189.375 141.6 192.75 127.05C192.75 127.05 229.65 134.925 229.875 134.925C233.55 135.825 235.875 139.575 234.9 143.475Z" fill="white" stroke="black" stroke-width="1.4" stroke-miterlimit="10" stroke-linecap="round"/>
<path d="M208.05 139.95C203.925 135.825 205.275 129.75 205.275 129.75L208.05 139.95Z" fill="white"/>
<path d="M208.05 139.95C203.925 135.825 205.275 129.75 205.275 129.75" stroke="black" stroke-width="1.4" stroke-miterlimit="10" stroke-linecap="round"/>
<path d="M222.075 143.625C218.325 138.225 219.525 132.75 219.525 132.75L222.075 143.625Z" fill="white"/>
<path d="M222.075 143.625C218.325 138.225 219.525 132.75 219.525 132.75" stroke="black" stroke-width="1.4" stroke-miterlimit="10" stroke-linecap="round"/>
<path d="M178.275 168.525C181.547 168.525 184.2 165.872 184.2 162.6C184.2 159.328 181.547 156.675 178.275 156.675C175.003 156.675 172.35 159.328 172.35 162.6C172.35 165.872 175.003 168.525 178.275 168.525Z" fill="white" stroke="black" stroke-width="1.4" stroke-miterlimit="10" stroke-linecap="round"/>
<path d="M206.025 189.525L200.4 188.1C198.075 187.5 195.75 188.925 195.225 191.175L192.075 203.85C191.775 204.675 191.625 205.5 191.625 206.4C191.625 210.375 194.85 213.6 198.825 213.6C202.05 213.6 204.75 211.5 205.725 208.575C205.8 208.425 205.875 208.2 205.875 208.05L209.25 194.625C209.7 192.375 208.275 190.05 206.025 189.525Z" fill="white" stroke="black" stroke-width="1.4" stroke-miterlimit="10" stroke-linecap="round"/>
<path d="M242.85 169.125L235.875 167.925C235.8 152.4 223.125 139.8 207.45 139.8C191.775 139.8 179.025 152.475 179.025 168.075C179.025 183.675 191.775 196.35 207.45 196.35C219.375 196.35 229.65 189 233.85 178.575L241.05 179.775C244.05 180.3 246.825 178.275 247.35 175.35C247.875 172.425 245.775 169.575 242.85 169.125Z" fill="white" stroke="black" stroke-width="1.4" stroke-miterlimit="10" stroke-linecap="round"/>
<path d="M191.475 162.525C193.215 162.525 194.625 161.115 194.625 159.375C194.625 157.635 193.215 156.225 191.475 156.225C189.735 156.225 188.325 157.635 188.325 159.375C188.325 161.115 189.735 162.525 191.475 162.525Z" fill="black"/>
<path d="M217.8 168.075C219.54 168.075 220.95 166.665 220.95 164.925C220.95 163.185 219.54 161.775 217.8 161.775C216.06 161.775 214.65 163.185 214.65 164.925C214.65 166.665 216.06 168.075 217.8 168.075Z" fill="black"/>
<path d="M191.475 167.25L212.925 171.825C212.175 176.4 208.275 179.85 203.475 179.925C198.15 180 193.725 175.8 193.575 170.475C193.575 169.65 193.65 168.825 193.875 168.075" stroke="black" stroke-width="1.4" stroke-miterlimit="10" stroke-linecap="round"/>
<path d="M234.825 172.95L241.8 174.225" stroke="black" stroke-width="1.4" stroke-miterlimit="10" stroke-linecap="round"/>
<path d="M176.025 162.225L179.175 162.825" stroke="black" stroke-width="1.4" stroke-miterlimit="10" stroke-linecap="round"/>
<path d="M194.775 193.575L206.4 205.425L208.8 196.05C208.8 196.125 201.45 196.8 194.775 193.575Z" fill="black"/>
<path d="M207.75 267.45H136.35V284.325H212.1C214.575 284.325 216.225 281.85 215.25 279.525L210.9 269.55C210.375 268.275 209.175 267.45 207.75 267.45Z" fill="white" stroke="black" stroke-width="1.4" stroke-miterlimit="10" stroke-linecap="round"/>
<path d="M141.3 279.525L117.075 208.125C116.55 206.625 115.2 205.65 113.625 205.65H106.35C115.35 222.825 119.625 243.825 125.025 261.9C126.975 268.425 129.45 276.225 131.175 284.325H137.85C140.325 284.25 142.05 281.85 141.3 279.525Z" fill="white" stroke="black" stroke-width="1.4" stroke-miterlimit="10" stroke-linecap="round"/>
<path d="M106.125 205.65H15.825C13.275 205.65 11.475 208.125 12.3 210.525L36.45 281.85C36.975 283.35 38.325 284.325 39.9 284.325H130.275C132.75 284.325 134.475 281.925 133.725 279.6L109.5 208.2C109.05 206.625 107.7 205.65 106.125 205.65Z" fill="white" stroke="black" stroke-width="1.4" stroke-miterlimit="10" stroke-linecap="round"/>
<path d="M73.125 254.925C78.6341 254.925 83.1 250.493 83.1 245.025C83.1 239.557 78.6341 235.125 73.125 235.125C67.616 235.125 63.15 239.557 63.15 245.025C63.15 250.493 67.616 254.925 73.125 254.925Z" fill="black"/>
<path d="M148.2 278.55H170.625" stroke="black" stroke-width="1.4" stroke-miterlimit="10" stroke-linecap="round"/>
<path d="M173.7 278.55H187.725" stroke="black" stroke-width="1.4" stroke-miterlimit="10" stroke-linecap="round"/>
<path d="M139.125 273H212.1" stroke="black" stroke-width="1.4" stroke-miterlimit="10" stroke-linecap="round"/>
<path d="M211.5 109.2C212.325 104.7 212.775 100.05 215.025 95.9998L215.325 94.0498C215.325 94.0498 210.6 96.8998 198.375 99.9748L210.075 112.35C210.375 111.45 210.975 109.95 211.5 109.2Z" fill="black"/>
<path d="M240.525 103.35C242.25 98.175 242.7 97.8 244.725 90.3V88.125C244.725 88.125 248.175 92.55 260.025 99.225L238.05 112.425C238.35 111.225 240 104.55 240.525 103.35Z" fill="black"/>
<path d="M132.975 278.775C132.975 278.775 131.85 275.55 121.65 244.65C121.65 280.35 82.425 284.25 82.425 284.25H130.275C130.275 284.325 135.375 285.225 132.975 278.775Z" fill="black"/>
<path d="M141.45 57.6001H63.975C59.925 57.6001 56.625 60.9001 56.625 64.9501V111.825C56.625 115.875 59.925 119.175 63.975 119.175H141.45C145.5 119.175 148.8 115.875 148.8 111.825V64.9501C148.8 60.9001 145.575 57.6001 141.45 57.6001Z" fill="white" stroke="black" stroke-width="1.4" stroke-miterlimit="10" stroke-linecap="round"/>
<path d="M63 57.6C63 57.6 142.425 57.15 142.725 57.375C148.875 58.8 148.65 63.3 148.65 63.3V69.45H56.85V63.225C56.85 63.225 57.15 57.825 63 57.6Z" fill="black"/>
<path d="M64.2001 65.0251C65.3184 65.0251 66.2251 64.1185 66.2251 63.0001C66.2251 61.8817 65.3184 60.9751 64.2001 60.9751C63.0817 60.9751 62.175 61.8817 62.175 63.0001C62.175 64.1185 63.0817 65.0251 64.2001 65.0251Z" fill="white"/>
<path d="M72.225 65.0251C73.3434 65.0251 74.25 64.1185 74.25 63.0001C74.25 61.8817 73.3434 60.9751 72.225 60.9751C71.1066 60.9751 70.2 61.8817 70.2 63.0001C70.2 64.1185 71.1066 65.0251 72.225 65.0251Z" fill="white"/>
<path d="M80.175 65.0251C81.2934 65.0251 82.2 64.1185 82.2 63.0001C82.2 61.8817 81.2934 60.9751 80.175 60.9751C79.0566 60.9751 78.15 61.8817 78.15 63.0001C78.15 64.1185 79.0566 65.0251 80.175 65.0251Z" fill="white"/>
<path d="M67.875 81.0752H137.475" stroke="black" stroke-width="1.4" stroke-miterlimit="10" stroke-linecap="round"/>
<path d="M67.875 92.4751H137.475" stroke="black" stroke-width="1.4" stroke-miterlimit="10" stroke-linecap="round"/>
<path d="M67.875 103.8H113.175" stroke="black" stroke-width="1.4" stroke-miterlimit="10" stroke-linecap="round"/>
<path d="M101.4 124.5H23.4C19.5 124.5 16.35 127.65 16.35 131.55V178.95C16.35 182.85 19.5 186 23.4 186H101.4C105.3 186 108.45 182.85 108.45 178.95V131.55C108.45 127.65 105.3 124.5 101.4 124.5Z" fill="white" stroke="black" stroke-width="1.4" stroke-miterlimit="10" stroke-linecap="round"/>
<path d="M22.65 124.5C22.65 124.5 102.075 124.05 102.375 124.275C108.525 125.7 108.3 130.2 108.3 130.2V136.35H16.5V130.125C16.5 130.125 16.8 124.65 22.65 124.5Z" fill="black"/>
<path d="M23.85 131.925C24.9684 131.925 25.875 131.018 25.875 129.9C25.875 128.782 24.9684 127.875 23.85 127.875C22.7316 127.875 21.825 128.782 21.825 129.9C21.825 131.018 22.7316 131.925 23.85 131.925Z" fill="white"/>
<path d="M31.875 131.925C32.9934 131.925 33.9 131.018 33.9 129.9C33.9 128.782 32.9934 127.875 31.875 127.875C30.7567 127.875 29.85 128.782 29.85 129.9C29.85 131.018 30.7567 131.925 31.875 131.925Z" fill="white"/>
<path d="M39.825 131.925C40.9434 131.925 41.8501 131.018 41.8501 129.9C41.8501 128.782 40.9434 127.875 39.825 127.875C38.7067 127.875 37.8 128.782 37.8 129.9C37.8 131.018 38.7067 131.925 39.825 131.925Z" fill="white"/>
<path d="M27.525 147.975H97.125" stroke="black" stroke-width="1.4" stroke-miterlimit="10" stroke-linecap="round"/>
<path d="M27.525 159.3H97.125" stroke="black" stroke-width="1.4" stroke-miterlimit="10" stroke-linecap="round"/>
<path d="M27.525 170.7H72.825" stroke="black" stroke-width="1.4" stroke-miterlimit="10" stroke-linecap="round"/>
<path d="M17.325 284.475H286.5" stroke="black" stroke-width="1.4" stroke-miterlimit="10" stroke-linecap="round"/>
<path d="M299.625 203.625H221.1C217.35 203.625 214.275 206.7 214.275 210.45V258.375C214.275 262.125 217.35 265.2 221.1 265.2H299.625C303.375 265.2 306.45 262.125 306.45 258.375V210.45C306.45 206.7 303.375 203.625 299.625 203.625Z" fill="white" stroke="black" stroke-width="1.4" stroke-miterlimit="10" stroke-linecap="round"/>
<path d="M220.65 203.625C220.65 203.625 300.075 203.175 300.375 203.4C306.525 204.825 306.3 209.325 306.3 209.325V215.475H214.5V209.25C214.5 209.25 214.8 203.85 220.65 203.625Z" fill="black"/>
<path d="M221.85 211.125C222.968 211.125 223.875 210.219 223.875 209.1C223.875 207.982 222.968 207.075 221.85 207.075C220.732 207.075 219.825 207.982 219.825 209.1C219.825 210.219 220.732 211.125 221.85 211.125Z" fill="white"/>
<path d="M229.8 211.125C230.918 211.125 231.825 210.219 231.825 209.1C231.825 207.982 230.918 207.075 229.8 207.075C228.682 207.075 227.775 207.982 227.775 209.1C227.775 210.219 228.682 211.125 229.8 211.125Z" fill="white"/>
<path d="M237.825 211.125C238.943 211.125 239.85 210.219 239.85 209.1C239.85 207.982 238.943 207.075 237.825 207.075C236.707 207.075 235.8 207.982 235.8 209.1C235.8 210.219 236.707 211.125 237.825 211.125Z" fill="white"/>
<path d="M225.525 227.1H295.125" stroke="black" stroke-width="1.4" stroke-miterlimit="10" stroke-linecap="round"/>
<path d="M225.525 238.5H295.125" stroke="black" stroke-width="1.4" stroke-miterlimit="10" stroke-linecap="round"/>
<path d="M225.525 249.9H270.825" stroke="black" stroke-width="1.4" stroke-miterlimit="10" stroke-linecap="round"/>
<path d="M209.25 97.2002C225.3 91.9502 224.4 77.0252 224.4 77.0252V77.1001V77.0252C224.4 77.0252 223.95 70.8001 229.275 67.4251C233.025 65.1001 234.15 62.1002 231.675 58.5752C229.725 55.8002 216.75 53.7002 212.7 70.8001C212.7 70.8001 200.25 67.2751 197.4 81.6001" fill="white"/>
<path d="M209.25 97.2002C225.3 91.9502 224.4 77.0252 224.4 77.0252V77.1001V77.0252C224.4 77.0252 223.95 70.8001 229.275 67.4251C233.025 65.1001 234.15 62.1002 231.675 58.5752C229.725 55.8002 216.75 53.7002 212.7 70.8001C212.7 70.8001 200.25 67.2751 197.4 81.6001" stroke="black" stroke-width="1.4" stroke-miterlimit="10" stroke-linecap="round" stroke-linejoin="round"/>
<path d="M257.775 98.3999C241.95 92.5499 243.375 77.6999 243.375 77.6999V77.7749V77.6999C243.375 77.6999 244.05 71.4749 238.8 67.9499C235.125 65.4749 234.15 62.3999 236.7 59.0249C238.725 56.3249 251.775 54.7499 255.15 71.9999C255.15 71.9999 267.75 68.9999 270 83.3249" fill="white"/>
<path d="M257.775 98.3999C241.95 92.5499 243.375 77.6999 243.375 77.6999V77.7749V77.6999C243.375 77.6999 244.05 71.4749 238.8 67.9499C235.125 65.4749 234.15 62.3999 236.7 59.0249C238.725 56.3249 251.775 54.7499 255.15 71.9999C255.15 71.9999 267.75 68.9999 270 83.3249" stroke="black" stroke-width="1.4" stroke-miterlimit="10" stroke-linecap="round" stroke-linejoin="round"/>
</svg>